<svg width="20" height="20" viewBox="0 0 20 20" fill="none" xmlns="http://www.w3.org/2000/svg">
<path d="M9.47028 19.2851H4.13027C3.74821 19.2838 3.37019 19.2068 3.01808 19.0584C2.66598 18.9101 2.34678 18.6935 2.07895 18.421C1.81112 18.1485 1.59998 17.8256 1.45774 17.471C1.3155 17.1164 1.24499 16.7371 1.25028 16.3551V3.59509C1.25028 2.83126 1.55371 2.09873 2.09381 1.55862C2.63392 1.01852 3.36645 0.715088 4.13027 0.715088H13.7303C14.495 0.715083 15.2286 1.01819 15.7703 1.55801C16.312 2.09783 16.6176 2.83035 16.6203 3.59509V7.86509C16.6177 8.06319 16.5378 8.25246 16.3977 8.39256C16.2577 8.53265 16.0684 8.6125 15.8703 8.61509C15.6714 8.61509 15.4806 8.53607 15.3399 8.39542C15.1993 8.25476 15.1203 8.064 15.1203 7.86509V3.59509C15.1203 3.41302 15.0843 3.23275 15.0143 3.06466C14.9443 2.89658 14.8418 2.744 14.7126 2.61573C14.5834 2.48745 14.43 2.38601 14.2615 2.31725C14.0929 2.24849 13.9123 2.21377 13.7303 2.21509H4.13027C3.76428 2.21509 3.41327 2.36048 3.15447 2.61928C2.89567 2.87808 2.75028 3.22909 2.75028 3.59509V16.3551C2.74896 16.5372 2.78368 16.7177 2.85244 16.8863C2.9212 17.0548 3.02264 17.2082 3.15092 17.3374C3.2792 17.4666 3.43177 17.5691 3.59986 17.6391C3.76794 17.7091 3.94821 17.7451 4.13027 17.7451H9.47028C9.66919 17.7451 9.85995 17.8241 10.0006 17.9648C10.1413 18.1054 10.2203 18.2962 10.2203 18.4951C10.2243 18.5965 10.2079 18.6978 10.1722 18.7928C10.1364 18.8879 10.082 18.9748 10.012 19.0484C9.94214 19.1221 9.85817 19.1809 9.76512 19.2216C9.67206 19.2622 9.57181 19.2838 9.47028 19.2851ZM18.0003 18.7451C17.9017 18.7456 17.8041 18.7263 17.7131 18.6886C17.6221 18.6508 17.5395 18.5952 17.4703 18.5251L16.6203 17.6851C16.078 18.0349 15.4456 18.219 14.8003 18.2151C13.8932 18.2151 13.0234 17.8548 12.382 17.2134C11.7406 16.572 11.3803 15.7021 11.3803 14.7951C11.3776 14.3443 11.4642 13.8974 11.6348 13.4802C11.8055 13.0629 12.057 12.6835 12.3749 12.3638C12.6927 12.0441 13.0706 11.7904 13.4869 11.6173C13.9031 11.4442 14.3495 11.3551 14.8003 11.3551C15.7056 11.3551 16.574 11.714 17.2151 12.3532C17.8561 12.9925 18.2176 13.8598 18.2203 14.7651C18.2194 15.4128 18.0357 16.0472 17.6903 16.5951L18.5303 17.4351C18.6707 17.5757 18.7496 17.7663 18.7496 17.9651C18.7496 18.1638 18.6707 18.3545 18.5303 18.4951C18.4636 18.5706 18.3822 18.6318 18.2911 18.6748C18.1999 18.7178 18.101 18.7417 18.0003 18.7451ZM14.8003 12.8851C14.2928 12.8851 13.8059 13.086 13.4462 13.4439C13.0864 13.8018 12.8829 14.2876 12.8803 14.7951C12.8803 15.3043 13.0826 15.7927 13.4426 16.1527C13.8027 16.5128 14.2911 16.7151 14.8003 16.7151C15.3095 16.7151 15.7979 16.5128 16.1579 16.1527C16.518 15.7927 16.7203 15.3043 16.7203 14.7951C16.7176 14.2876 16.5142 13.8018 16.1544 13.4439C15.7946 13.086 15.3078 12.8851 14.8003 12.8851ZM8.93028 12.8851H5.73028C5.53217 12.8825 5.34291 12.8026 5.20281 12.6626C5.06272 12.5225 4.98287 12.3332 4.98028 12.1351C4.98028 11.9362 5.05929 11.7454 5.19995 11.6048C5.3406 11.4641 5.53137 11.3851 5.73028 11.3851H8.93028C9.02914 11.3837 9.12727 11.4022 9.21887 11.4394C9.31048 11.4767 9.39369 11.5318 9.4636 11.6018C9.53352 11.6717 9.58871 11.7549 9.62593 11.8465C9.66314 11.9381 9.68162 12.0362 9.68028 12.1351C9.68028 12.334 9.60126 12.5248 9.46061 12.6654C9.31996 12.8061 9.12919 12.8851 8.93028 12.8851ZM12.1303 9.68509H5.73028C5.53217 9.6825 5.34291 9.60265 5.20281 9.46255C5.06272 9.32246 4.98287 9.1332 4.98028 8.93509C4.98028 8.73618 5.05929 8.54541 5.19995 8.40476C5.3406 8.26411 5.53137 8.18509 5.73028 8.18509H12.1303C12.2291 8.18374 12.3273 8.20222 12.4189 8.23944C12.5105 8.27665 12.5937 8.33185 12.6636 8.40176C12.7335 8.47167 12.7887 8.55489 12.8259 8.64649C12.8631 8.73809 12.8816 8.83623 12.8803 8.93509C12.8803 9.134 12.8013 9.32476 12.6606 9.46542C12.52 9.60607 12.3292 9.68509 12.1303 9.68509ZM12.1303 6.48509H5.73028C5.53217 6.4825 5.34291 6.40265 5.20281 6.26255C5.06272 6.12246 4.98287 5.93319 4.98028 5.73509C4.98028 5.53617 5.05929 5.34541 5.19995 5.20476C5.3406 5.06411 5.53137 4.98509 5.73028 4.98509H12.1303C12.2291 4.98374 12.3273 5.00222 12.4189 5.03944C12.5105 5.07665 12.5937 5.13185 12.6636 5.20176C12.7335 5.27167 12.7887 5.35489 12.8259 5.44649C12.8631 5.53809 12.8816 5.63622 12.8803 5.73509C12.8803 5.83358 12.8609 5.93111 12.8232 6.0221C12.7855 6.11309 12.7303 6.19577 12.6606 6.26542C12.591 6.33506 12.5083 6.39031 12.4173 6.428C12.3263 6.46569 12.2288 6.48509 12.1303 6.48509Z" fill="white"/>
</svg>
